<mxfile host="app.diagrams.net" agent="Mozilla/5.0 (Windows NT 10.0; Win64; x64) AppleWebKit/537.36 (KHTML, like Gecko) Chrome/127.0.0.0 Safari/537.36 OPR/113.0.0.0" version="24.8.3">
  <diagram name="Page-1" id="g7YIbez59IXDdKfww73Z">
    <mxGraphModel dx="2379" dy="894" grid="1" gridSize="10" guides="1" tooltips="1" connect="1" arrows="1" fold="1" page="1" pageScale="1" pageWidth="827" pageHeight="1169" math="0" shadow="0">
      <root>
        <mxCell id="0" />
        <mxCell id="1" parent="0" />
        <mxCell id="bTUg4Wsz-j2t45PoIhnY-1" value="" style="ellipse;html=1;shape=startState;fillColor=#000000;strokeColor=#000000;" parent="1" vertex="1">
          <mxGeometry x="180" y="40" width="30" height="30" as="geometry" />
        </mxCell>
        <mxCell id="bTUg4Wsz-j2t45PoIhnY-2" value="" style="edgeStyle=orthogonalEdgeStyle;html=1;verticalAlign=bottom;endArrow=open;endSize=8;strokeColor=#000000;rounded=0;" parent="1" source="bTUg4Wsz-j2t45PoIhnY-1" edge="1">
          <mxGeometry relative="1" as="geometry">
            <mxPoint x="195" y="130" as="targetPoint" />
          </mxGeometry>
        </mxCell>
        <mxCell id="bTUg4Wsz-j2t45PoIhnY-3" value="Создание курса" style="text;html=1;align=center;verticalAlign=middle;resizable=0;points=[];autosize=1;strokeColor=none;fillColor=none;" parent="1" vertex="1">
          <mxGeometry x="210" y="80" width="110" height="30" as="geometry" />
        </mxCell>
        <mxCell id="bTUg4Wsz-j2t45PoIhnY-9" style="edgeStyle=orthogonalEdgeStyle;rounded=0;orthogonalLoop=1;jettySize=auto;html=1;exitX=0.5;exitY=1;exitDx=0;exitDy=0;entryX=0.5;entryY=0;entryDx=0;entryDy=0;" parent="1" source="bTUg4Wsz-j2t45PoIhnY-4" target="bTUg4Wsz-j2t45PoIhnY-5" edge="1">
          <mxGeometry relative="1" as="geometry" />
        </mxCell>
        <mxCell id="bTUg4Wsz-j2t45PoIhnY-4" value="Черновик" style="rounded=1;whiteSpace=wrap;html=1;" parent="1" vertex="1">
          <mxGeometry x="135" y="130" width="120" height="60" as="geometry" />
        </mxCell>
        <mxCell id="bTUg4Wsz-j2t45PoIhnY-10" style="edgeStyle=orthogonalEdgeStyle;rounded=0;orthogonalLoop=1;jettySize=auto;html=1;exitX=0.5;exitY=1;exitDx=0;exitDy=0;curved=1;" parent="1" source="bTUg4Wsz-j2t45PoIhnY-5" target="bTUg4Wsz-j2t45PoIhnY-6" edge="1">
          <mxGeometry relative="1" as="geometry" />
        </mxCell>
        <mxCell id="bTUg4Wsz-j2t45PoIhnY-11" style="edgeStyle=orthogonalEdgeStyle;rounded=0;orthogonalLoop=1;jettySize=auto;html=1;exitX=0.5;exitY=1;exitDx=0;exitDy=0;entryX=0.5;entryY=1;entryDx=0;entryDy=0;curved=1;" parent="1" source="bTUg4Wsz-j2t45PoIhnY-5" target="bTUg4Wsz-j2t45PoIhnY-8" edge="1">
          <mxGeometry relative="1" as="geometry" />
        </mxCell>
        <mxCell id="bTUg4Wsz-j2t45PoIhnY-5" value="На утверждении" style="rounded=1;whiteSpace=wrap;html=1;" parent="1" vertex="1">
          <mxGeometry x="135" y="280" width="120" height="60" as="geometry" />
        </mxCell>
        <mxCell id="bTUg4Wsz-j2t45PoIhnY-13" value="" style="edgeStyle=orthogonalEdgeStyle;rounded=0;orthogonalLoop=1;jettySize=auto;html=1;" parent="1" source="bTUg4Wsz-j2t45PoIhnY-6" target="bTUg4Wsz-j2t45PoIhnY-7" edge="1">
          <mxGeometry relative="1" as="geometry" />
        </mxCell>
        <mxCell id="bTUg4Wsz-j2t45PoIhnY-6" value="Одобрен" style="rounded=1;whiteSpace=wrap;html=1;" parent="1" vertex="1">
          <mxGeometry x="240" y="420" width="120" height="60" as="geometry" />
        </mxCell>
        <mxCell id="bTUg4Wsz-j2t45PoIhnY-19" style="edgeStyle=orthogonalEdgeStyle;rounded=0;orthogonalLoop=1;jettySize=auto;html=1;exitX=0.5;exitY=1;exitDx=0;exitDy=0;curved=1;" parent="1" source="bTUg4Wsz-j2t45PoIhnY-7" target="bTUg4Wsz-j2t45PoIhnY-18" edge="1">
          <mxGeometry relative="1" as="geometry" />
        </mxCell>
        <mxCell id="bTUg4Wsz-j2t45PoIhnY-7" value="Опубликован" style="rounded=1;whiteSpace=wrap;html=1;" parent="1" vertex="1">
          <mxGeometry x="240" y="540" width="120" height="60" as="geometry" />
        </mxCell>
        <mxCell id="6tz1QKLCQLlvz8mOKMeC-1" style="edgeStyle=orthogonalEdgeStyle;rounded=0;orthogonalLoop=1;jettySize=auto;html=1;exitX=0.5;exitY=0;exitDx=0;exitDy=0;entryX=0;entryY=0.5;entryDx=0;entryDy=0;curved=1;" edge="1" parent="1" source="bTUg4Wsz-j2t45PoIhnY-8" target="bTUg4Wsz-j2t45PoIhnY-4">
          <mxGeometry relative="1" as="geometry" />
        </mxCell>
        <mxCell id="bTUg4Wsz-j2t45PoIhnY-8" value="Отклонен" style="rounded=1;whiteSpace=wrap;html=1;" parent="1" vertex="1">
          <mxGeometry x="-20" y="220" width="120" height="60" as="geometry" />
        </mxCell>
        <mxCell id="bTUg4Wsz-j2t45PoIhnY-14" value="Отправить на утверждение" style="text;html=1;align=center;verticalAlign=middle;resizable=0;points=[];autosize=1;strokeColor=none;fillColor=none;" parent="1" vertex="1">
          <mxGeometry x="200" y="220" width="180" height="30" as="geometry" />
        </mxCell>
        <mxCell id="bTUg4Wsz-j2t45PoIhnY-15" value="Администратор одобрил курс" style="text;html=1;align=center;verticalAlign=middle;resizable=0;points=[];autosize=1;strokeColor=none;fillColor=none;" parent="1" vertex="1">
          <mxGeometry x="250" y="350" width="190" height="30" as="geometry" />
        </mxCell>
        <mxCell id="bTUg4Wsz-j2t45PoIhnY-16" value="Администратор отклонил курс" style="text;html=1;align=center;verticalAlign=middle;resizable=0;points=[];autosize=1;strokeColor=none;fillColor=none;" parent="1" vertex="1">
          <mxGeometry y="370" width="190" height="30" as="geometry" />
        </mxCell>
        <mxCell id="bTUg4Wsz-j2t45PoIhnY-17" value="Публикация курса на платформе" style="text;html=1;align=center;verticalAlign=middle;resizable=0;points=[];autosize=1;strokeColor=none;fillColor=none;" parent="1" vertex="1">
          <mxGeometry x="300" y="490" width="210" height="30" as="geometry" />
        </mxCell>
        <mxCell id="bTUg4Wsz-j2t45PoIhnY-18" value="" style="ellipse;html=1;shape=endState;fillColor=#000000;strokeColor=#000000;" parent="1" vertex="1">
          <mxGeometry x="285" y="650" width="30" height="30" as="geometry" />
        </mxCell>
        <mxCell id="6tz1QKLCQLlvz8mOKMeC-2" value="Редактировать курс" style="text;html=1;align=center;verticalAlign=middle;resizable=0;points=[];autosize=1;strokeColor=none;fillColor=none;" vertex="1" parent="1">
          <mxGeometry x="-30" y="130" width="130" height="30" as="geometry" />
        </mxCell>
      </root>
    </mxGraphModel>
  </diagram>
</mxfile>
